<mxfile host="app.diagrams.net" modified="2023-11-14T17:44:57.737Z" agent="Mozilla/5.0 (Windows NT 10.0; Win64; x64) AppleWebKit/537.36 (KHTML, like Gecko) Chrome/119.0.0.0 Safari/537.36 Edg/119.0.0.0" etag="fDbDPOY7CZcFvbsiufXr" version="22.1.0" type="github">
  <diagram id="C5RBs43oDa-KdzZeNtuy" name="Page-1">
    <mxGraphModel dx="1243" dy="1927" grid="1" gridSize="10" guides="1" tooltips="1" connect="1" arrows="1" fold="1" page="1" pageScale="1" pageWidth="827" pageHeight="1169" math="0" shadow="0">
      <root>
        <mxCell id="WIyWlLk6GJQsqaUBKTNV-0" />
        <mxCell id="WIyWlLk6GJQsqaUBKTNV-1" parent="WIyWlLk6GJQsqaUBKTNV-0" />
        <mxCell id="nasBl9K5YajOh5_W6PYL-2" style="edgeStyle=orthogonalEdgeStyle;rounded=0;orthogonalLoop=1;jettySize=auto;html=1;exitX=0.5;exitY=1;exitDx=0;exitDy=0;strokeColor=#028090;fontColor=#E4FDE1;fillColor=#F45B69;" parent="WIyWlLk6GJQsqaUBKTNV-1" source="nasBl9K5YajOh5_W6PYL-0" target="nasBl9K5YajOh5_W6PYL-3" edge="1">
          <mxGeometry relative="1" as="geometry">
            <mxPoint x="220" y="150" as="targetPoint" />
          </mxGeometry>
        </mxCell>
        <mxCell id="nasBl9K5YajOh5_W6PYL-0" value="&lt;font color=&quot;#ffffff&quot;&gt;&quot;Enter limit.&quot;&lt;/font&gt;" style="shape=parallelogram;perimeter=parallelogramPerimeter;whiteSpace=wrap;html=1;fixedSize=1;fillColor=#007FFF;labelBackgroundColor=none;strokeColor=#028090;fontColor=#E4FDE1;" parent="WIyWlLk6GJQsqaUBKTNV-1" vertex="1">
          <mxGeometry x="160" y="40" width="120" height="60" as="geometry" />
        </mxCell>
        <mxCell id="nasBl9K5YajOh5_W6PYL-5" style="edgeStyle=orthogonalEdgeStyle;rounded=0;orthogonalLoop=1;jettySize=auto;html=1;exitX=1;exitY=0.5;exitDx=0;exitDy=0;exitPerimeter=0;entryX=0;entryY=0.5;entryDx=0;entryDy=0;strokeColor=#028090;fontColor=#E4FDE1;fillColor=#F45B69;" parent="WIyWlLk6GJQsqaUBKTNV-1" source="nasBl9K5YajOh5_W6PYL-3" target="nasBl9K5YajOh5_W6PYL-10" edge="1">
          <mxGeometry relative="1" as="geometry" />
        </mxCell>
        <mxCell id="nasBl9K5YajOh5_W6PYL-3" value="&amp;nbsp;lim" style="shape=card;whiteSpace=wrap;html=1;strokeColor=#028090;fontColor=#E4FDE1;fillColor=#663300;" parent="WIyWlLk6GJQsqaUBKTNV-1" vertex="1">
          <mxGeometry x="193.75" y="160" width="52.5" height="50" as="geometry" />
        </mxCell>
        <mxCell id="nasBl9K5YajOh5_W6PYL-6" value="Yes" style="edgeStyle=orthogonalEdgeStyle;rounded=0;html=1;jettySize=auto;orthogonalLoop=1;fontSize=11;endArrow=block;endFill=0;endSize=8;strokeWidth=1;shadow=0;labelBackgroundColor=none;strokeColor=#028090;fontColor=default;exitX=1;exitY=0.5;exitDx=0;exitDy=0;entryX=1;entryY=0.5;entryDx=0;entryDy=0;" parent="WIyWlLk6GJQsqaUBKTNV-1" target="nasBl9K5YajOh5_W6PYL-25" edge="1" source="WIyWlLk6GJQsqaUBKTNV-10">
          <mxGeometry x="-0.1295" y="-15" relative="1" as="geometry">
            <mxPoint as="offset" />
            <mxPoint x="450" y="184.97" as="sourcePoint" />
            <mxPoint x="670" y="350" as="targetPoint" />
            <Array as="points" />
          </mxGeometry>
        </mxCell>
        <mxCell id="nasBl9K5YajOh5_W6PYL-9" value="No" style="edgeStyle=orthogonalEdgeStyle;rounded=0;html=1;jettySize=auto;orthogonalLoop=1;fontSize=11;endArrow=block;endFill=0;endSize=8;strokeWidth=1;shadow=0;labelBackgroundColor=none;strokeColor=#028090;fontColor=default;exitX=0;exitY=0.5;exitDx=0;exitDy=0;entryX=1;entryY=0.5;entryDx=0;entryDy=0;" parent="WIyWlLk6GJQsqaUBKTNV-1" source="WIyWlLk6GJQsqaUBKTNV-10" target="nasBl9K5YajOh5_W6PYL-31" edge="1">
          <mxGeometry y="10" relative="1" as="geometry">
            <mxPoint as="offset" />
            <mxPoint x="290" y="240" as="sourcePoint" />
            <mxPoint x="800" y="781.6666666666666" as="targetPoint" />
            <Array as="points" />
          </mxGeometry>
        </mxCell>
        <mxCell id="nasBl9K5YajOh5_W6PYL-11" style="edgeStyle=orthogonalEdgeStyle;rounded=0;orthogonalLoop=1;jettySize=auto;html=1;exitX=1;exitY=0.5;exitDx=0;exitDy=0;strokeColor=#028090;fontColor=#E4FDE1;fillColor=#F45B69;entryX=0;entryY=0.5;entryDx=0;entryDy=0;" parent="WIyWlLk6GJQsqaUBKTNV-1" source="nasBl9K5YajOh5_W6PYL-10" target="nasBl9K5YajOh5_W6PYL-12" edge="1">
          <mxGeometry relative="1" as="geometry">
            <mxPoint x="399.79310344827593" y="360" as="targetPoint" />
          </mxGeometry>
        </mxCell>
        <mxCell id="nasBl9K5YajOh5_W6PYL-10" value="c=1&lt;br&gt;s=0&lt;br&gt;n=2" style="rounded=0;whiteSpace=wrap;html=1;strokeColor=#028090;fontColor=#E4FDE1;fillColor=#F45B69;" parent="WIyWlLk6GJQsqaUBKTNV-1" vertex="1">
          <mxGeometry x="320" y="160" width="75" height="50" as="geometry" />
        </mxCell>
        <mxCell id="nasBl9K5YajOh5_W6PYL-12" value="n%c==0" style="rhombus;whiteSpace=wrap;html=1;strokeColor=#028090;fontColor=#E4FDE1;fillColor=#FC68A8;" parent="WIyWlLk6GJQsqaUBKTNV-1" vertex="1">
          <mxGeometry x="470" y="140" width="100" height="90" as="geometry" />
        </mxCell>
        <mxCell id="nasBl9K5YajOh5_W6PYL-13" value="Yes" style="edgeStyle=orthogonalEdgeStyle;rounded=0;html=1;jettySize=auto;orthogonalLoop=1;fontSize=11;endArrow=block;endFill=0;endSize=8;strokeWidth=1;shadow=0;labelBackgroundColor=none;strokeColor=#028090;fontColor=default;exitX=1;exitY=0.5;exitDx=0;exitDy=0;" parent="WIyWlLk6GJQsqaUBKTNV-1" source="nasBl9K5YajOh5_W6PYL-12" target="nasBl9K5YajOh5_W6PYL-14" edge="1">
          <mxGeometry x="-0.1052" y="5" relative="1" as="geometry">
            <mxPoint as="offset" />
            <mxPoint x="490" y="390" as="sourcePoint" />
            <mxPoint x="570" y="385" as="targetPoint" />
            <Array as="points" />
          </mxGeometry>
        </mxCell>
        <mxCell id="nasBl9K5YajOh5_W6PYL-17" style="edgeStyle=orthogonalEdgeStyle;rounded=0;orthogonalLoop=1;jettySize=auto;html=1;exitX=0.5;exitY=1;exitDx=0;exitDy=0;entryX=1;entryY=0.5;entryDx=0;entryDy=0;strokeColor=#028090;fontColor=#E4FDE1;fillColor=#F45B69;" parent="WIyWlLk6GJQsqaUBKTNV-1" source="nasBl9K5YajOh5_W6PYL-14" target="nasBl9K5YajOh5_W6PYL-16" edge="1">
          <mxGeometry relative="1" as="geometry" />
        </mxCell>
        <mxCell id="nasBl9K5YajOh5_W6PYL-14" value="s+=c" style="rounded=0;whiteSpace=wrap;html=1;strokeColor=#028090;fontColor=#E4FDE1;fillColor=#F45B69;" parent="WIyWlLk6GJQsqaUBKTNV-1" vertex="1">
          <mxGeometry x="660" y="172.5" width="70" height="25" as="geometry" />
        </mxCell>
        <mxCell id="nasBl9K5YajOh5_W6PYL-15" value="No" style="edgeStyle=orthogonalEdgeStyle;rounded=0;html=1;jettySize=auto;orthogonalLoop=1;fontSize=11;endArrow=block;endFill=0;endSize=8;strokeWidth=1;shadow=0;labelBackgroundColor=none;strokeColor=#028090;fontColor=default;exitX=0.5;exitY=1;exitDx=0;exitDy=0;" parent="WIyWlLk6GJQsqaUBKTNV-1" source="nasBl9K5YajOh5_W6PYL-12" target="nasBl9K5YajOh5_W6PYL-16" edge="1">
          <mxGeometry y="10" relative="1" as="geometry">
            <mxPoint as="offset" />
            <mxPoint x="390" y="440" as="sourcePoint" />
            <mxPoint x="400" y="490" as="targetPoint" />
            <Array as="points" />
          </mxGeometry>
        </mxCell>
        <mxCell id="nasBl9K5YajOh5_W6PYL-18" style="edgeStyle=orthogonalEdgeStyle;rounded=0;orthogonalLoop=1;jettySize=auto;html=1;exitX=0.5;exitY=1;exitDx=0;exitDy=0;strokeColor=#028090;fontColor=#E4FDE1;fillColor=#F45B69;" parent="WIyWlLk6GJQsqaUBKTNV-1" source="nasBl9K5YajOh5_W6PYL-16" target="nasBl9K5YajOh5_W6PYL-19" edge="1">
          <mxGeometry relative="1" as="geometry">
            <mxPoint x="399.79310344827593" y="550" as="targetPoint" />
          </mxGeometry>
        </mxCell>
        <mxCell id="nasBl9K5YajOh5_W6PYL-16" value="c++" style="rounded=0;whiteSpace=wrap;html=1;strokeColor=#028090;fontColor=#E4FDE1;fillColor=#F45B69;" parent="WIyWlLk6GJQsqaUBKTNV-1" vertex="1">
          <mxGeometry x="485" y="300" width="70" height="30" as="geometry" />
        </mxCell>
        <mxCell id="nasBl9K5YajOh5_W6PYL-19" value="n&amp;gt;c" style="rhombus;whiteSpace=wrap;html=1;strokeColor=#028090;fontColor=#E4FDE1;fillColor=#FC68A8;" parent="WIyWlLk6GJQsqaUBKTNV-1" vertex="1">
          <mxGeometry x="470" y="380" width="100" height="85" as="geometry" />
        </mxCell>
        <mxCell id="nasBl9K5YajOh5_W6PYL-20" value="No" style="edgeStyle=orthogonalEdgeStyle;rounded=0;html=1;jettySize=auto;orthogonalLoop=1;fontSize=11;endArrow=block;endFill=0;endSize=8;strokeWidth=1;shadow=0;labelBackgroundColor=none;strokeColor=#028090;fontColor=default;exitX=0.5;exitY=1;exitDx=0;exitDy=0;" parent="WIyWlLk6GJQsqaUBKTNV-1" source="nasBl9K5YajOh5_W6PYL-19" target="nasBl9K5YajOh5_W6PYL-21" edge="1">
          <mxGeometry y="10" relative="1" as="geometry">
            <mxPoint as="offset" />
            <mxPoint x="410" y="670" as="sourcePoint" />
            <mxPoint x="400" y="680" as="targetPoint" />
            <Array as="points" />
          </mxGeometry>
        </mxCell>
        <mxCell id="nasBl9K5YajOh5_W6PYL-21" value="s==n" style="rhombus;whiteSpace=wrap;html=1;strokeColor=#028090;fontColor=#E4FDE1;fillColor=#FC68A8;" parent="WIyWlLk6GJQsqaUBKTNV-1" vertex="1">
          <mxGeometry x="470" y="530" width="100" height="90" as="geometry" />
        </mxCell>
        <mxCell id="nasBl9K5YajOh5_W6PYL-22" value="No" style="edgeStyle=orthogonalEdgeStyle;rounded=0;html=1;jettySize=auto;orthogonalLoop=1;fontSize=11;endArrow=block;endFill=0;endSize=8;strokeWidth=1;shadow=0;labelBackgroundColor=none;strokeColor=#028090;fontColor=default;exitX=0.5;exitY=1;exitDx=0;exitDy=0;entryX=0;entryY=0.5;entryDx=0;entryDy=0;" parent="WIyWlLk6GJQsqaUBKTNV-1" source="nasBl9K5YajOh5_W6PYL-21" target="wX3lc35L_wtewaEbMBnM-4" edge="1">
          <mxGeometry y="10" relative="1" as="geometry">
            <mxPoint as="offset" />
            <mxPoint x="340" y="860" as="sourcePoint" />
            <mxPoint x="520" y="790" as="targetPoint" />
            <Array as="points">
              <mxPoint x="520" y="675" />
            </Array>
          </mxGeometry>
        </mxCell>
        <mxCell id="nasBl9K5YajOh5_W6PYL-24" value="Yes" style="edgeStyle=orthogonalEdgeStyle;rounded=0;html=1;jettySize=auto;orthogonalLoop=1;fontSize=11;endArrow=block;endFill=0;endSize=8;strokeWidth=1;shadow=0;labelBackgroundColor=none;strokeColor=#028090;fontColor=default;exitX=1;exitY=0.5;exitDx=0;exitDy=0;" parent="WIyWlLk6GJQsqaUBKTNV-1" source="nasBl9K5YajOh5_W6PYL-19" target="nasBl9K5YajOh5_W6PYL-25" edge="1">
          <mxGeometry x="-0.1052" y="5" relative="1" as="geometry">
            <mxPoint as="offset" />
            <mxPoint x="500" y="600" as="sourcePoint" />
            <mxPoint x="620" y="423" as="targetPoint" />
            <Array as="points" />
          </mxGeometry>
        </mxCell>
        <mxCell id="nasBl9K5YajOh5_W6PYL-25" value="1" style="ellipse;whiteSpace=wrap;html=1;aspect=fixed;strokeColor=#028090;fontColor=#E4FDE1;fillColor=#006600;" parent="WIyWlLk6GJQsqaUBKTNV-1" vertex="1">
          <mxGeometry x="631.5" y="408.25" width="28.5" height="28.5" as="geometry" />
        </mxCell>
        <mxCell id="nasBl9K5YajOh5_W6PYL-27" style="edgeStyle=orthogonalEdgeStyle;rounded=0;orthogonalLoop=1;jettySize=auto;html=1;exitX=0.5;exitY=1;exitDx=0;exitDy=0;strokeColor=#028090;fontColor=#E4FDE1;fillColor=#F45B69;" parent="WIyWlLk6GJQsqaUBKTNV-1" source="nasBl9K5YajOh5_W6PYL-26" target="wX3lc35L_wtewaEbMBnM-1" edge="1">
          <mxGeometry relative="1" as="geometry">
            <mxPoint x="520" y="50" as="targetPoint" />
          </mxGeometry>
        </mxCell>
        <mxCell id="nasBl9K5YajOh5_W6PYL-26" value="1" style="ellipse;whiteSpace=wrap;html=1;aspect=fixed;strokeColor=#028090;fontColor=#E4FDE1;fillColor=#006600;" parent="WIyWlLk6GJQsqaUBKTNV-1" vertex="1">
          <mxGeometry x="505.75" y="-28" width="28.5" height="28.5" as="geometry" />
        </mxCell>
        <mxCell id="nasBl9K5YajOh5_W6PYL-28" value="Yes" style="edgeStyle=orthogonalEdgeStyle;rounded=0;html=1;jettySize=auto;orthogonalLoop=1;fontSize=11;endArrow=block;endFill=0;endSize=8;strokeWidth=1;shadow=0;labelBackgroundColor=none;strokeColor=#028090;fontColor=default;exitX=1;exitY=0.5;exitDx=0;exitDy=0;entryX=0;entryY=0.5;entryDx=0;entryDy=0;" parent="WIyWlLk6GJQsqaUBKTNV-1" source="nasBl9K5YajOh5_W6PYL-21" target="nasBl9K5YajOh5_W6PYL-29" edge="1">
          <mxGeometry x="-0.1052" y="5" relative="1" as="geometry">
            <mxPoint as="offset" />
            <mxPoint x="480" y="740" as="sourcePoint" />
            <mxPoint x="570" y="735" as="targetPoint" />
            <Array as="points" />
          </mxGeometry>
        </mxCell>
        <mxCell id="nasBl9K5YajOh5_W6PYL-32" style="edgeStyle=orthogonalEdgeStyle;rounded=0;orthogonalLoop=1;jettySize=auto;html=1;exitX=1;exitY=0.5;exitDx=0;exitDy=0;entryX=1;entryY=0.5;entryDx=0;entryDy=0;strokeColor=#028090;fontColor=#E4FDE1;fillColor=#F45B69;" parent="WIyWlLk6GJQsqaUBKTNV-1" source="nasBl9K5YajOh5_W6PYL-29" target="wX3lc35L_wtewaEbMBnM-4" edge="1">
          <mxGeometry relative="1" as="geometry" />
        </mxCell>
        <mxCell id="nasBl9K5YajOh5_W6PYL-29" value="n" style="shape=document;whiteSpace=wrap;html=1;boundedLbl=1;strokeColor=#028090;fontColor=#E4FDE1;fillColor=#B266FF;" parent="WIyWlLk6GJQsqaUBKTNV-1" vertex="1">
          <mxGeometry x="660" y="555" width="50" height="40" as="geometry" />
        </mxCell>
        <mxCell id="nasBl9K5YajOh5_W6PYL-31" value="END" style="ellipse;whiteSpace=wrap;html=1;strokeColor=#028090;fontColor=#E4FDE1;fillColor=#0000CC;" parent="WIyWlLk6GJQsqaUBKTNV-1" vertex="1">
          <mxGeometry x="444.25" y="762.5" width="90" height="55" as="geometry" />
        </mxCell>
        <mxCell id="nasBl9K5YajOh5_W6PYL-34" style="edgeStyle=orthogonalEdgeStyle;rounded=0;orthogonalLoop=1;jettySize=auto;html=1;exitX=0.5;exitY=1;exitDx=0;exitDy=0;entryX=0.5;entryY=0;entryDx=0;entryDy=0;strokeColor=#028090;fontColor=#E4FDE1;fillColor=#F45B69;" parent="WIyWlLk6GJQsqaUBKTNV-1" source="nasBl9K5YajOh5_W6PYL-33" target="nasBl9K5YajOh5_W6PYL-0" edge="1">
          <mxGeometry relative="1" as="geometry" />
        </mxCell>
        <mxCell id="nasBl9K5YajOh5_W6PYL-33" value="START" style="ellipse;whiteSpace=wrap;html=1;strokeColor=#028090;fontColor=#E4FDE1;fillColor=#0000CC;" parent="WIyWlLk6GJQsqaUBKTNV-1" vertex="1">
          <mxGeometry x="175" y="-70" width="90" height="55" as="geometry" />
        </mxCell>
        <mxCell id="WIyWlLk6GJQsqaUBKTNV-10" value="n&amp;lt;=0" style="rhombus;whiteSpace=wrap;html=1;shadow=0;fontFamily=Helvetica;fontSize=12;align=center;strokeWidth=1;spacing=6;spacingTop=-4;labelBackgroundColor=none;fillColor=#FC68A8;strokeColor=#028090;fontColor=#E4FDE1;" parent="WIyWlLk6GJQsqaUBKTNV-1" vertex="1">
          <mxGeometry x="635" y="750" width="100" height="80" as="geometry" />
        </mxCell>
        <mxCell id="wX3lc35L_wtewaEbMBnM-2" style="edgeStyle=orthogonalEdgeStyle;shape=connector;rounded=0;orthogonalLoop=1;jettySize=auto;html=1;exitX=0.5;exitY=1;exitDx=0;exitDy=0;entryX=0.5;entryY=0;entryDx=0;entryDy=0;labelBackgroundColor=default;strokeColor=#028090;align=center;verticalAlign=middle;fontFamily=Helvetica;fontSize=11;fontColor=#E4FDE1;endArrow=classic;fillColor=#F45B69;" edge="1" parent="WIyWlLk6GJQsqaUBKTNV-1" source="wX3lc35L_wtewaEbMBnM-1" target="nasBl9K5YajOh5_W6PYL-12">
          <mxGeometry relative="1" as="geometry" />
        </mxCell>
        <mxCell id="wX3lc35L_wtewaEbMBnM-1" value="&lt;font color=&quot;#ffffff&quot;&gt;s=0&lt;/font&gt;" style="rounded=0;whiteSpace=wrap;html=1;fillColor=#F45B69;strokeColor=#028090;" vertex="1" parent="WIyWlLk6GJQsqaUBKTNV-1">
          <mxGeometry x="483.75" y="50" width="72.5" height="30" as="geometry" />
        </mxCell>
        <mxCell id="wX3lc35L_wtewaEbMBnM-5" style="edgeStyle=orthogonalEdgeStyle;shape=connector;rounded=0;orthogonalLoop=1;jettySize=auto;html=1;exitX=0.5;exitY=1;exitDx=0;exitDy=0;entryX=0.5;entryY=0;entryDx=0;entryDy=0;labelBackgroundColor=default;strokeColor=#028090;align=center;verticalAlign=middle;fontFamily=Helvetica;fontSize=12;fontColor=#E4FDE1;endArrow=classic;fillColor=#F45B69;" edge="1" parent="WIyWlLk6GJQsqaUBKTNV-1" source="wX3lc35L_wtewaEbMBnM-4" target="WIyWlLk6GJQsqaUBKTNV-10">
          <mxGeometry relative="1" as="geometry" />
        </mxCell>
        <mxCell id="wX3lc35L_wtewaEbMBnM-4" value="n++" style="rounded=0;whiteSpace=wrap;html=1;strokeColor=#028090;align=center;verticalAlign=middle;fontFamily=Helvetica;fontSize=12;fontColor=#E4FDE1;fillColor=#F45B69;" vertex="1" parent="WIyWlLk6GJQsqaUBKTNV-1">
          <mxGeometry x="655" y="660" width="60" height="30" as="geometry" />
        </mxCell>
      </root>
    </mxGraphModel>
  </diagram>
</mxfile>
